<?xml version="1.0" encoding="utf-8"?>
<!-- Generator: Adobe Illustrator 18.1.0, SVG Export Plug-In . SVG Version: 6.00 Build 0)  -->
<!DOCTYPE svg PUBLIC "-//W3C//DTD SVG 1.1//EN" "http://www.w3.org/Graphics/SVG/1.1/DTD/svg11.dtd">
<svg version="1.1" xmlns="http://www.w3.org/2000/svg" xmlns:xlink="http://www.w3.org/1999/xlink" x="0px" y="0px"
	 viewBox="0 0 97.1 260.8" enable-background="new 0 0 97.1 260.8" xml:space="preserve">
<g id="beaker">
	<g>
		<path fill="#BCBEC0" d="M49.3,13.2c-28.9,0-30.9,8.9-30.9,12.2c0,3.3,8.1,14.4,8.1,14.4l0,0l0.1,184.9c0,12.6,10.3,22.8,22.8,22.8
			c12.6,0,22.8-10.3,22.8-22.8L72.1,39.8l0,0c0,0,8-10.7,8-14.4C80.2,21.6,78.1,13.2,49.3,13.2z"/>
		
			<ellipse transform="matrix(1 -6.650320e-04 6.650320e-04 1 -1.619240e-02 3.277811e-02)" fill="#414142" cx="49.3" cy="24.4" rx="21.7" ry="7"/>
		<polygon fill="#D82328" points="34.9,121 34.9,125 34.9,121 		"/>
		<path fill="#D71F26" d="M47.9,156.7l15.5-14.1c0,0-0.6-25.4-0.6-31.5c-0.1-6.7-19.3,6.6-19.3,6.6v25.1L47.9,156.7z"/>
		<polygon fill="#F05B78" points="44.8,152.2 44.4,114.5 34.9,121 35,145 		"/>
		<polygon opacity="0.6" fill="#FFFFFF" points="34.9,125 35,134.7 35,134.7 		"/>
		<g>
			<path d="M26.5,126.6l0.1,98.2c0,12.6,10.3,22.8,22.8,22.8s22.8-10.3,22.8-22.8l-0.1-99.2c0,0-16.7,21.4-24,21.8
				S26.5,126.6,26.5,126.6z"/>
		</g>
		<path fill="#FFFFFF" d="M42.1,44.7c0,0-7.8-0.5-8-2.5c-0.1-1.2-0.2,75.3,0.7,78.8s9.6-4.1,9.6-4.1S42.1,41.8,42.1,44.7z"/>
	</g>
</g>
<g id="bowtie">
	<g>
		<path d="M83,48.3c-4.3-8.9-17.3,2.4-24.4,9.7l0-0.4c0-2.8-2.3-5.1-5.1-5.1l-8.8,0c-2.8,0-5.1,2.3-5.1,5.1l0,1.5
			C32.8,52,18.6,39,14,48.4c0,0-8.9,29.8,6.5,27.4c9.2-1.4,15.5-5.6,19.1-8.7c0.2,2.7,2.4,4.8,5.1,4.8l8.8,0c2.4,0,4.4-1.7,5-4
			c3.7,3,9.7,6.6,18.1,7.8C92,78.1,83,48.3,83,48.3z"/>
	</g>
</g>
</svg>
