<svg xmlns="http://www.w3.org/2000/svg" viewBox="0 0 97.1 260.8" enable-background="new 0 0 97.1 260.8"><g><path fill="#BCBEC0" d="M49.3 13.2c-28.9 0-30.9 8.9-30.9 12.2 0 3.3 8.1 14.4 8.1 14.4l.1 184.9c0 12.6 10.3 22.8 22.8 22.8 12.6 0 22.8-10.3 22.8-22.8l-.1-184.9s8-10.7 8-14.4c.1-3.8-2-12.2-30.8-12.2z"/><ellipse transform="matrix(1 -.001 .001 1 -.016 .033)" fill="#414142" cx="49.3" cy="24.4" rx="21.7" ry="7"/><path fill="#D82328" d="M34.9 121v4-4z"/><path fill="#D71F26" d="M47.9 156.7l15.5-14.1s-.6-25.4-.6-31.5c-.1-6.7-19.3 6.6-19.3 6.6v25.1l4.4 13.9z"/><path fill="#F05B78" d="M44.8 152.2l-.4-37.7-9.5 6.5.1 24z"/><path opacity=".6" fill="#fff" d="M34.9 125l.1 9.7z"/><path d="M26.5 126.6l.1 98.2c0 12.6 10.3 22.8 22.8 22.8s22.8-10.3 22.8-22.8l-.1-99.2s-16.7 21.4-24 21.8-21.6-20.8-21.6-20.8z"/><path fill="#fff" d="M42.1 44.7s-7.8-.5-8-2.5c-.1-1.2-.2 75.3.7 78.8s9.6-4.1 9.6-4.1-2.3-75.1-2.3-72.2z"/></g><path d="M83 48.3c-4.3-8.9-17.3 2.4-24.4 9.7v-.4c0-2.8-2.3-5.1-5.1-5.1h-8.8c-2.8 0-5.1 2.3-5.1 5.1v1.5C32.8 52 18.6 39 14 48.4c0 0-8.9 29.8 6.5 27.4 9.2-1.4 15.5-5.6 19.1-8.7.2 2.7 2.4 4.8 5.1 4.8h8.8c2.4 0 4.4-1.7 5-4 3.7 3 9.7 6.6 18.1 7.8C92 78.1 83 48.3 83 48.3z"/></svg>